HIERARCHY
ROOT root
{
	OFFSET 0.000000 0.000000 0.000000
	CHANNELS 6 Xposition Yposition Zposition Zrotation Yrotation Xrotation
	JOINT lhip
	{
		OFFSET 0.058581 -0.082280 -0.017664
		CHANNELS 3 Zrotation Yrotation Xrotation
		JOINT lknee
		{
			OFFSET 0.043451 -0.386469 0.008037
			CHANNELS 3 Zrotation Yrotation Xrotation
			JOINT lankle
			{
				OFFSET -0.014790 -0.426874 -0.037428
				CHANNELS 3 Zrotation Yrotation Xrotation
				JOINT ltoe
				{
					OFFSET 0.041054 -0.060286 0.122042
					CHANNELS 3 Zrotation Yrotation Xrotation
					End Site
					{
						OFFSET 0.000000 0.000000 0.000000
					}
				}
			}
		}
	}
	JOINT rhip
	{
		OFFSET -0.060310 -0.090513 -0.013543
		CHANNELS 3 Zrotation Yrotation Xrotation
		JOINT rknee
		{
			OFFSET -0.043257 -0.383688 -0.004843
			CHANNELS 3 Zrotation Yrotation Xrotation
			JOINT rankle
			{
				OFFSET 0.019056 -0.420046 -0.034562
				CHANNELS 3 Zrotation Yrotation Xrotation
				JOINT rtoe
				{
					OFFSET -0.034840 -0.062106 0.130323
					CHANNELS 3 Zrotation Yrotation Xrotation
					End Site
					{
						OFFSET 0.000000 0.000000 0.000000
					}
				}
			}
		}
	}
	JOINT lowerback
	{
		OFFSET 0.004439 0.124404 -0.038385
		CHANNELS 3 Zrotation Yrotation Xrotation
		JOINT upperback
		{
			OFFSET 0.004488 0.137956 0.026820
			CHANNELS 3 Zrotation Yrotation Xrotation
			JOINT chest
			{
				OFFSET -0.002265 0.056032 0.002855
				CHANNELS 3 Zrotation Yrotation Xrotation
				JOINT lowerneck
				{
					OFFSET -0.013390 0.211636 -0.033468
					CHANNELS 3 Zrotation Yrotation Xrotation
					JOINT upperneck
					{
						OFFSET 0.010113 0.088937 0.050410
						CHANNELS 3 Zrotation Yrotation Xrotation
						End Site
						{
							OFFSET 0.000000 0.000000 0.000000
						}
					}
				}
				JOINT lclavicle
				{
					OFFSET 0.071702 0.114000 -0.018898
					CHANNELS 3 Zrotation Yrotation Xrotation
					JOINT lshoulder
					{
						OFFSET 0.122921 0.045205 -0.019046
						CHANNELS 3 Zrotation Yrotation Xrotation
						JOINT lelbow
						{
							OFFSET 0.255332 -0.015649 -0.022946
							CHANNELS 3 Zrotation Yrotation Xrotation
							JOINT lwrist
							{
								OFFSET 0.265709 0.012698 -0.007375
								CHANNELS 3 Zrotation Yrotation Xrotation
								End Site
								{
									OFFSET 0.000000 0.000000 0.000000
								}
							}
						}
					}
				}
				JOINT rclavicle
				{
					OFFSET -0.082954 0.112472 -0.023707
					CHANNELS 3 Zrotation Yrotation Xrotation
					JOINT rshoulder
					{
						OFFSET -0.113228 0.046853 -0.008472
						CHANNELS 3 Zrotation Yrotation Xrotation
						JOINT relbow
						{
							OFFSET -0.260127 -0.014369 -0.031269
							CHANNELS 3 Zrotation Yrotation Xrotation
							JOINT rwrist
							{
								OFFSET -0.269108 0.006794 -0.006027
								CHANNELS 3 Zrotation Yrotation Xrotation
								End Site
								{
									OFFSET 0.000000 0.000000 0.000000
								}
							}
						}
					}
				}
			}
		}
	}
}
MOTION
Frames: 11
Frame Time: 0.033333
1.271536 0.605951 1.013207 83.858030 -0.109238 92.070885 5.386663 5.886425 -8.553265 -1.512778 4.784046 8.357840 -0.221694 9.920849 -4.963060 0.000000 -0.000000 0.000000 -4.830031 -4.557309 -12.796063 1.111429 -8.156258 11.144323 7.687154 -5.372260 -0.437902 0.000000 -0.000000 0.000000 -0.031697 0.569781 8.846176 -0.242328 -1.518520 -11.888936 -0.525653 -0.977958 -1.531736 2.370800 0.533353 -7.369852 1.188299 -1.475316 4.999828 -25.770847 4.259285 -0.174792 -43.719207 -6.703789 10.050233 -1.923203 -27.561648 14.846342 -14.241613 -13.529499 0.575601 22.850380 -0.930558 0.527934 48.324832 3.741820 17.106236 -0.054672 30.699525 11.412463 15.833387 7.552392 -8.101557 
1.274580 0.605082 1.013126 83.731459 -0.122419 91.892352 5.365926 5.974190 -7.604277 -1.447392 4.734910 7.370887 -0.290020 9.952262 -4.791120 0.000000 -0.000000 0.000000 -4.815034 -4.611502 -12.194346 1.110877 -8.099480 10.734665 7.674748 -5.236739 -0.471107 0.000000 -0.000000 0.000000 0.072077 0.430686 8.467345 -0.224673 -1.474529 -11.943566 -0.481977 -0.987304 -1.867077 2.485076 0.164435 -7.208261 1.248424 -1.527650 5.114835 -26.097149 4.630027 -0.062284 -44.056154 -6.340844 9.934460 -1.249727 -27.651233 13.858868 -13.804231 -13.597847 0.072602 23.006778 -0.922168 0.540150 48.025218 3.888800 17.255817 0.149959 31.208499 11.804069 15.640974 7.659678 -7.960833 
1.276840 0.604407 1.012699 83.646523 -0.099267 91.776154 5.473776 6.106516 -6.997175 -1.499725 4.754871 6.796393 -0.475220 9.867199 -4.693793 0.000000 -0.000000 0.000000 -4.755440 -4.674377 -11.753963 1.121857 -8.007006 10.391520 7.583841 -5.163683 -0.525952 0.000000 -0.000000 0.000000 0.191895 0.289354 8.172355 -0.223681 -1.434407 -12.106723 -0.430920 -0.947188 -2.076829 2.608906 -0.191510 -7.142864 1.540999 -1.506500 5.544592 -26.305202 4.956278 0.109765 -44.764776 -6.267437 9.687016 -0.614590 -27.008440 11.302497 -12.127655 -14.250944 -2.553236 23.081421 -0.930022 0.623186 48.100693 4.105561 17.466475 0.086690 31.264084 11.624076 14.912851 7.900364 -7.915515 
1.278539 0.603890 1.012333 83.587794 -0.095150 91.688146 5.543289 6.207864 -6.461423 -1.535619 4.786474 6.221858 -0.608097 9.769926 -4.589799 0.000000 -0.000000 0.000000 -4.740598 -4.755023 -11.372358 1.152558 -7.991207 10.051356 7.524076 -5.036359 -0.532490 0.000000 -0.000000 0.000000 0.259362 0.205272 7.950163 -0.220557 -1.410110 -12.289422 -0.392539 -0.895344 -2.251862 2.874129 -0.454623 -7.045224 1.883975 -1.597880 6.191877 -26.520044 5.211020 0.269047 -45.607079 -6.259834 9.476284 0.021493 -25.970929 9.281760 -11.014172 -14.691870 -4.498251 23.168712 -0.933872 0.747978 48.484452 4.285402 17.546383 -0.272559 30.879399 11.146528 14.472682 8.015155 -8.071904 
1.279808 0.603510 1.012295 83.545363 -0.111999 91.573638 5.483225 6.246932 -5.744205 -1.453521 4.727867 5.274447 -0.597354 9.773166 -4.315692 0.000000 -0.000000 0.000000 -4.754391 -4.819776 -10.988582 1.153248 -8.074593 9.722062 7.521188 -4.837773 -0.492550 0.000000 -0.000000 0.000000 0.299692 0.183428 7.861457 -0.214809 -1.393739 -12.465623 -0.370163 -0.858057 -2.425138 3.256238 -0.603082 -6.861501 2.148282 -1.834311 6.900740 -26.805042 5.382374 0.383916 -46.500420 -6.157874 9.363908 0.725230 -24.753402 8.711774 -11.239457 -14.556911 -4.438178 23.310337 -0.935993 0.878481 49.083213 4.389829 17.419054 -0.858778 30.146067 10.649785 14.584846 7.917997 -8.225236 
1.280630 0.603234 1.012412 83.519351 -0.103930 91.431707 5.498374 6.338740 -5.328436 -1.421815 4.762974 4.938399 -0.634912 9.649981 -4.291629 0.000000 -0.000000 0.000000 -4.750470 -4.867878 -10.634718 1.145970 -8.193334 9.478735 7.519503 -4.617217 -0.491274 0.000000 -0.000000 0.000000 0.345321 0.224090 7.842650 -0.179276 -1.385030 -12.557686 -0.352919 -0.855921 -2.517020 3.685975 -0.683752 -6.684124 2.329917 -2.126948 7.512981 -27.058577 5.475753 0.454769 -47.566824 -6.083610 9.302506 1.401642 -23.302583 9.004494 -12.127788 -13.991132 -3.433646 23.460148 -1.005394 0.913959 49.881439 4.516645 17.135427 -1.550475 29.112806 10.231451 15.056297 7.660887 -8.286980 
1.280752 0.602870 1.012528 83.598575 -0.067353 91.421024 5.528409 6.549052 -5.163214 -1.375083 4.693175 4.660747 -0.677403 9.424141 -4.211464 0.000000 -0.000000 0.000000 -4.693906 -4.868628 -10.491577 1.116845 -8.378699 9.299267 7.459599 -4.481797 -0.463785 0.000000 -0.000000 0.000000 0.346343 0.199135 7.758375 -0.105143 -1.357124 -12.536711 -0.292950 -0.890630 -2.579538 4.044301 -0.916658 -6.433425 2.547929 -2.449459 7.790848 -27.252408 5.527463 0.546736 -48.772801 -6.189187 9.322742 1.964631 -21.642674 9.054417 -12.735838 -13.523101 -3.132259 23.624810 -1.147678 0.888972 50.792485 4.735301 16.869025 -2.284251 27.776321 9.670421 15.394321 7.404925 -8.225724 
1.280489 0.602680 1.012478 83.679367 -0.054599 91.411107 5.562314 6.618315 -5.099588 -1.378208 4.752108 4.539377 -0.724048 9.215707 -4.202406 0.000000 -0.000000 0.000000 -4.686675 -4.876687 -10.413200 1.091766 -8.594063 9.191634 7.413326 -4.302936 -0.429724 0.000000 -0.000000 0.000000 0.352081 0.236685 7.751011 -0.032001 -1.356013 -12.414406 -0.255875 -0.953605 -2.578308 4.274886 -1.610806 -6.167718 2.738400 -3.215889 7.569290 -27.379842 5.574005 0.608673 -50.007500 -6.433533 9.456179 2.274155 -20.017407 8.865391 -12.959636 -13.248748 -3.565813 23.786367 -1.271557 0.785206 51.820239 5.066631 16.630852 -2.990726 26.101428 8.916110 15.479779 7.132379 -8.110504 
1.279786 0.602450 1.012391 83.811225 -0.057732 91.509962 5.561814 6.702295 -5.239206 -1.385312 4.786230 4.493884 -0.738984 8.983794 -4.202804 0.000000 -0.000000 0.000000 -4.667744 -4.885830 -10.541644 1.019850 -8.817524 9.208890 7.364210 -4.169800 -0.383252 0.000000 -0.000000 0.000000 0.323820 0.218550 7.699728 0.075904 -1.358321 -12.173612 -0.279401 -1.016294 -2.520789 4.440399 -3.073068 -6.098383 2.898886 -4.868250 6.857831 -27.505411 5.710155 0.658794 -51.017955 -6.678670 9.780031 2.261177 -19.004076 9.286404 -13.395428 -12.905884 -3.951833 23.997968 -1.337045 0.586630 52.911565 5.419025 16.456900 -3.597974 24.201372 8.254328 15.615452 6.732681 -7.858872 
1.278703 0.602387 1.012290 83.921032 -0.081487 91.691453 5.502193 6.657579 -5.545992 -1.371892 4.868943 4.524690 -0.691753 8.829842 -4.226243 0.000000 -0.000000 0.000000 -4.689705 -4.767695 -10.838281 0.948661 -9.100077 9.306716 7.326788 -4.101271 -0.298339 0.000000 -0.000000 0.000000 0.311257 0.188052 7.687589 0.190877 -1.364233 -11.879858 -0.374243 -1.070975 -2.421893 4.565146 -5.346885 -6.323134 3.093091 -7.453512 5.706389 -27.593170 5.874355 0.773072 -51.787419 -6.801568 10.326765 1.975161 -18.891626 10.449230 -14.148399 -12.553293 -4.004303 24.157984 -1.239078 0.381088 54.085866 5.689264 16.356589 -4.054842 22.327651 7.744477 15.750294 6.220004 -7.502612 
1.277523 0.602557 1.012188 83.941562 -0.116226 91.912152 5.403245 6.558094 -5.904398 -1.336674 5.025470 4.565405 -0.650385 8.742817 -4.238568 0.000000 -0.000000 0.000000 -4.744820 -4.623783 -11.189412 0.923089 -9.356216 9.369248 7.329218 -4.024324 -0.168397 0.000000 -0.000000 0.000000 0.307015 0.222996 7.772940 0.310532 -1.390757 -11.631092 -0.456699 -1.142101 -2.336691 4.643355 -8.050822 -6.903922 3.326911 -10.535366 4.616508 -27.533487 6.020183 1.045382 -52.503597 -6.758681 10.977399 1.473078 -19.398994 11.908731 -14.835645 -12.498767 -3.961202 24.245543 -0.966118 0.283041 55.197015 5.771429 16.297204 -4.242635 20.799922 7.443780 15.887507 5.832186 -7.164380 
